<svg width="190" height="50" viewBox="0 0 190 50" fill="none" xmlns="http://www.w3.org/2000/svg">
<path d="M72.196 41.36C70.228 41.36 68.344 41.084 66.544 40.532C64.744 39.956 63.316 39.224 62.26 38.336L63.88 34.7C64.888 35.492 66.136 36.152 67.624 36.68C69.112 37.208 70.636 37.472 72.196 37.472C73.516 37.472 74.584 37.328 75.4 37.04C76.216 36.752 76.816 36.368 77.2 35.888C77.584 35.384 77.776 34.82 77.776 34.196C77.776 33.428 77.5 32.816 76.948 32.36C76.396 31.88 75.676 31.508 74.788 31.244C73.924 30.956 72.952 30.692 71.872 30.452C70.816 30.212 69.748 29.936 68.668 29.624C67.612 29.288 66.64 28.868 65.752 28.364C64.888 27.836 64.18 27.14 63.628 26.276C63.076 25.412 62.8 24.308 62.8 22.964C62.8 21.596 63.16 20.348 63.88 19.22C64.624 18.068 65.74 17.156 67.228 16.484C68.74 15.788 70.648 15.44 72.952 15.44C74.464 15.44 75.964 15.632 77.452 16.016C78.94 16.4 80.236 16.952 81.34 17.672L79.864 21.308C78.736 20.636 77.572 20.144 76.372 19.832C75.172 19.496 74.02 19.328 72.916 19.328C71.62 19.328 70.564 19.484 69.748 19.796C68.956 20.108 68.368 20.516 67.984 21.02C67.624 21.524 67.444 22.1 67.444 22.748C67.444 23.516 67.708 24.14 68.236 24.62C68.788 25.076 69.496 25.436 70.36 25.7C71.248 25.964 72.232 26.228 73.312 26.492C74.392 26.732 75.46 27.008 76.516 27.32C77.596 27.632 78.568 28.04 79.432 28.544C80.32 29.048 81.028 29.732 81.556 30.596C82.108 31.46 82.384 32.552 82.384 33.872C82.384 35.216 82.012 36.464 81.268 37.616C80.548 38.744 79.432 39.656 77.92 40.352C76.408 41.024 74.5 41.36 72.196 41.36ZM91.3446 26.276H103.873V30.128H91.3446V26.276ZM91.7046 37.076H105.925V41H87.0246V15.8H105.421V19.724H91.7046V37.076ZM111.142 41V15.8H114.994L130.798 35.204H128.89V15.8H133.534V41H129.682L113.878 21.596H115.786V41H111.142ZM136.722 41L148.062 15.8H152.67L164.046 41H159.15L149.394 18.284H151.266L141.546 41H136.722ZM141.942 35.168L143.202 31.496H156.81L158.07 35.168H141.942ZM167.251 41V15.8H177.619C179.851 15.8 181.759 16.16 183.343 16.88C184.951 17.6 186.187 18.632 187.051 19.976C187.915 21.32 188.347 22.916 188.347 24.764C188.347 26.612 187.915 28.208 187.051 29.552C186.187 30.896 184.951 31.928 183.343 32.648C181.759 33.368 179.851 33.728 177.619 33.728H169.843L171.931 31.532V41H167.251ZM171.931 32.036L169.843 29.768H177.403C179.467 29.768 181.015 29.336 182.047 28.472C183.103 27.584 183.631 26.348 183.631 24.764C183.631 23.156 183.103 21.92 182.047 21.056C181.015 20.192 179.467 19.76 177.403 19.76H169.843L171.931 17.456V32.036Z" fill="#5F5F5F"/>
<path d="M5.48754 37.3292C5.63219 37.9575 5.9395 38.5367 6.37866 39.0088C6.81782 39.4808 7.37338 39.8291 7.98963 40.0187L8.36463 41.6667H8.33338V45.8333H41.6667V41.6667H13.923C13.9503 41.4741 13.9454 41.2784 13.9084 41.0875L13.5 39.2896L35.0771 34.3812L35.4855 36.1792C35.5942 36.6561 35.8879 37.0704 36.302 37.331C36.7161 37.5916 37.2167 37.6771 37.6938 37.5687L39.4917 37.1583C39.728 37.1047 39.9515 37.005 40.1492 36.865C40.347 36.725 40.5152 36.5473 40.6443 36.3422C40.7733 36.1371 40.8607 35.9086 40.9014 35.6697C40.942 35.4308 40.9352 35.1862 40.8813 34.95L40.3584 32.6521C41.2875 31.7854 41.7542 30.4729 41.4521 29.1458L40.223 23.75C40.0738 23.0999 39.7502 22.5028 39.2869 22.023C38.8236 21.5433 38.2382 21.1989 37.5938 21.0271L33.325 13.9896C32.6956 12.9556 31.7573 12.1454 30.6426 11.6733C29.5279 11.2012 28.2932 11.091 27.1125 11.3583L10.7209 15.0875C9.53896 15.3552 8.47138 15.9884 7.66962 16.8971C6.86786 17.8058 6.37263 18.9439 6.25421 20.15L5.44796 28.3417C4.94227 28.7759 4.5645 29.3397 4.35527 29.9725C4.14604 30.6054 4.11326 31.2833 4.26046 31.9333L5.48754 37.3292V37.3292ZM11.7792 35.8958C11.425 35.9765 11.0585 35.9867 10.7004 35.9257C10.3423 35.8648 9.99972 35.7339 9.69222 35.5405C9.38473 35.3471 9.11832 35.0951 8.90823 34.7988C8.69813 34.5025 8.54846 34.1677 8.46775 33.8135C8.38704 33.4594 8.37688 33.0928 8.43785 32.7347C8.49881 32.3766 8.62971 32.034 8.82307 31.7265C9.01643 31.419 9.26846 31.1526 9.56477 30.9426C9.86109 30.7325 10.1959 30.5828 10.55 30.5021C11.2653 30.3391 12.016 30.4669 12.637 30.8574C13.258 31.2479 13.6985 31.8691 13.8615 32.5844C14.0245 33.2996 13.8967 34.0503 13.5062 34.6714C13.1157 35.2924 12.4945 35.7328 11.7792 35.8958V35.8958ZM35.1584 30.5792C34.7982 30.6782 34.4216 30.7032 34.0515 30.6528C33.6813 30.6023 33.3252 30.4774 33.0046 30.2856C32.684 30.0938 32.4056 29.8391 32.1862 29.5368C31.9667 29.2345 31.8107 28.8908 31.7277 28.5266C31.6446 28.1624 31.6361 27.7851 31.7028 27.4175C31.7695 27.05 31.91 26.6997 32.1157 26.3879C32.3214 26.0761 32.5882 25.8091 32.8998 25.6032C33.2115 25.3972 33.5617 25.2565 33.9292 25.1896C34.6303 25.0618 35.3537 25.2096 35.9486 25.6021C36.5435 25.9945 36.964 26.6014 37.1225 27.2963C37.2809 27.9911 37.1652 28.7203 36.7993 29.3319C36.4334 29.9435 35.8456 30.3903 35.1584 30.5792V30.5792ZM11.6438 19.15L28.0375 15.4187C28.366 15.3445 28.7095 15.3751 29.0197 15.5063C29.3299 15.6375 29.5911 15.8626 29.7667 16.15L33.0688 21.5937L31.8896 21.8625L10.9605 26.6271L9.77713 26.8958L10.4 20.5583C10.4336 20.2228 10.5717 19.9064 10.7949 19.6537C11.0181 19.4009 11.315 19.2247 11.6438 19.15V19.15ZM38.3438 8.33332L35.4167 4.16666L34.375 10.4167L39.5834 18.75L45.8334 20.8333L41.6667 15.5437L45.8334 13.6L41.6667 11.6562L45.8334 4.16666L38.3438 8.33332Z" fill="#77D19D"/>
</svg>
