<svg width="50" height="50" viewBox="0 0 50 50" fill="none" xmlns="http://www.w3.org/2000/svg">
<path d="M37.5 27.0833C33.5208 27.0833 29.9375 25.5 27.3125 22.9167H10.0208L12.1875 16.6667H23.5208C23.125 15.3542 22.9167 13.9583 22.9167 12.5C22.9167 11.0417 23.125 9.64583 23.5208 8.33333H18.75C17.6042 8.33333 16.6667 9.27083 16.6667 10.4167V12.5H11.4583C10.0833 12.5 8.9375 13.375 8.5 14.6042L4.16666 27.0833V42.7083C4.16666 44.4167 5.5625 45.8333 7.29166 45.8333C9.02083 45.8333 10.4167 44.4167 10.4167 42.7083V41.6667H35.4167V42.7083C35.4167 44.4167 36.8125 45.8333 38.5417 45.8333C40.2708 45.8333 41.6667 44.4167 41.6667 42.7083V27.0833L41.4792 26.5208C40.2083 26.875 38.875 27.0833 37.5 27.0833ZM13.5417 35.4167C11.8125 35.4167 10.4167 34.0208 10.4167 32.2917C10.4167 30.5625 11.8125 29.1667 13.5417 29.1667C15.2708 29.1667 16.6667 30.5625 16.6667 32.2917C16.6667 34.0208 15.2708 35.4167 13.5417 35.4167ZM32.2917 35.4167C30.5625 35.4167 29.1667 34.0208 29.1667 32.2917C29.1667 30.5625 30.5625 29.1667 32.2917 29.1667C34.0208 29.1667 35.4167 30.5625 35.4167 32.2917C35.4167 34.0208 34.0208 35.4167 32.2917 35.4167Z" fill="#FFB02E"/>
<path d="M37.5 2.08333C31.75 2.08333 27.0833 6.75 27.0833 12.5C27.0833 18.25 31.75 22.9167 37.5 22.9167C43.25 22.9167 47.9167 18.25 47.9167 12.5C47.9167 6.75 43.25 2.08333 37.5 2.08333ZM37.5 18.75C36.9167 18.75 36.4583 18.2917 36.4583 17.7083C36.4583 17.125 36.9167 16.6667 37.5 16.6667C38.0833 16.6667 38.5417 17.125 38.5417 17.7083C38.5417 18.2917 38.0833 18.75 37.5 18.75ZM38.5417 13.5417C38.5417 14.125 38.0833 14.5833 37.5 14.5833C36.9167 14.5833 36.4583 14.125 36.4583 13.5417V7.29166C36.4583 6.70833 36.9167 6.25 37.5 6.25C38.0833 6.25 38.5417 6.70833 38.5417 7.29166V13.5417Z" fill="#A63131"/>
</svg>
