<svg width="54" height="58" viewBox="0 0 54 58" fill="none" xmlns="http://www.w3.org/2000/svg">
<g clip-path="url(#clip0_106_166)">
<path d="M50.1841 56.4927C50.0525 56.8574 49.8201 57.1705 49.5178 57.3905C49.2155 57.6105 48.8578 57.7269 48.4921 57.7241C48.2761 57.7626 48.0601 57.7626 47.8441 57.7241L27.0001 48.3343L6.1201 57.7241C5.89981 57.8163 5.66469 57.8611 5.42819 57.856C5.19168 57.8509 4.95844 57.7961 4.74178 57.6945C4.52513 57.593 4.32932 57.4469 4.16554 57.2644C4.00176 57.082 3.87323 56.8668 3.7873 56.6312L3.7801 56.6081C3.65706 56.3593 3.58657 56.0847 3.57361 55.8036C3.56065 55.5226 3.60552 55.2419 3.70507 54.9813C3.80462 54.7208 3.95641 54.4868 4.14976 54.2958C4.34311 54.1048 4.5733 53.9614 4.8241 53.8759L22.2841 46.1793L4.8241 38.4828C4.58717 38.4058 4.36766 38.2774 4.17928 38.1055C3.99091 37.9337 3.83772 37.7222 3.7293 37.4842C3.62088 37.2462 3.55957 36.9869 3.54919 36.7224C3.53881 36.458 3.57959 36.194 3.66898 35.9472C3.75838 35.7003 3.89446 35.4759 4.06871 35.2878C4.24297 35.0997 4.45165 34.9521 4.68171 34.8542C4.91177 34.7562 5.15825 34.7101 5.40575 34.7187C5.65325 34.7272 5.89643 34.7903 6.1201 34.9039L27.0001 44.1782L47.8801 34.9039C48.1038 34.7903 48.3469 34.7272 48.5944 34.7187C48.8419 34.7101 49.0884 34.7562 49.3185 34.8542C49.5485 34.9521 49.7572 35.0997 49.9315 35.2878C50.1057 35.4759 50.2418 35.7003 50.3312 35.9472C50.4206 36.194 50.4614 36.458 50.451 36.7224C50.4406 36.9869 50.3793 37.2462 50.2709 37.4842C50.1625 37.7222 50.0093 37.9337 49.8209 38.1055C49.6325 38.2774 49.413 38.4058 49.1761 38.4828L31.6801 46.1793L49.1401 53.8759C49.3766 53.9641 49.5933 54.1041 49.7763 54.2869C49.9593 54.4698 50.1045 54.6915 50.2028 54.9378C50.3011 55.1841 50.3502 55.4496 50.347 55.7173C50.3437 55.9851 50.2883 56.2492 50.1841 56.4927ZM43.2001 16.2782V18.0099C43.1924 18.8294 42.9401 19.6248 42.4801 20.2804C40.4692 22.6597 38.3039 24.8844 36.0001 26.9379V31.4019C36.0027 31.7928 35.8938 32.1753 35.688 32.4984C35.4822 32.8215 35.1893 33.0699 34.8481 33.2106L27.0721 36.5586H26.8201L19.0081 33.2106C18.6939 33.0464 18.4312 32.7879 18.2522 32.4667C18.0731 32.1455 17.9856 31.7755 18.0001 31.4019V26.9379C15.6703 24.8887 13.4807 22.6639 11.4481 20.2804C11.0137 19.6155 10.7869 18.8208 10.8001 18.0099V16.2782C11.0913 12.1417 12.7322 8.24588 15.4365 5.27075C18.1407 2.29563 21.7364 0.430177 25.5961 0L28.2961 0C32.1778 0.39727 35.8029 2.24917 38.5304 5.22816C41.2579 8.20714 42.912 12.1213 43.2001 16.2782ZM21.6001 15.3931C21.6001 14.3725 21.2208 13.3937 20.5457 12.672C19.8706 11.9503 18.9549 11.5448 18.0001 11.5448C17.0453 11.5448 16.1296 11.9503 15.4545 12.672C14.7794 13.3937 14.4001 14.3725 14.4001 15.3931C14.4001 16.4137 14.7794 17.3926 15.4545 18.1142C16.1296 18.8359 17.0453 19.2414 18.0001 19.2414C18.9549 19.2414 19.8706 18.8359 20.5457 18.1142C21.2208 17.3926 21.6001 16.4137 21.6001 15.3931ZM25.2001 26.9379C25.2001 26.4276 25.0105 25.9382 24.6729 25.5774C24.3353 25.2165 23.8775 25.0138 23.4001 25.0138C22.9227 25.0138 22.4649 25.2165 22.1273 25.5774C21.7897 25.9382 21.6001 26.4276 21.6001 26.9379V28.8621C21.6001 29.3724 21.7897 29.8618 22.1273 30.2226C22.4649 30.5835 22.9227 30.7862 23.4001 30.7862C23.8775 30.7862 24.3353 30.5835 24.6729 30.2226C25.0105 29.8618 25.2001 29.3724 25.2001 28.8621V26.9379ZM32.4001 26.9379C32.4001 26.4276 32.2105 25.9382 31.8729 25.5774C31.5353 25.2165 31.0775 25.0138 30.6001 25.0138C30.1227 25.0138 29.6649 25.2165 29.3273 25.5774C28.9897 25.9382 28.8001 26.4276 28.8001 26.9379V28.8621C28.8001 29.3724 28.9897 29.8618 29.3273 30.2226C29.6649 30.5835 30.1227 30.7862 30.6001 30.7862C31.0775 30.7862 31.5353 30.5835 31.8729 30.2226C32.2105 29.8618 32.4001 29.3724 32.4001 28.8621V26.9379ZM39.6001 15.3931C39.6001 14.3725 39.2208 13.3937 38.5457 12.672C37.8706 11.9503 36.9549 11.5448 36.0001 11.5448C35.0453 11.5448 34.1296 11.9503 33.4545 12.672C32.7794 13.3937 32.4001 14.3725 32.4001 15.3931C32.4001 16.4137 32.7794 17.3926 33.4545 18.1142C34.1296 18.8359 35.0453 19.2414 36.0001 19.2414C36.9549 19.2414 37.8706 18.8359 38.5457 18.1142C39.2208 17.3926 39.6001 16.4137 39.6001 15.3931Z" fill="#FF0101"/>
</g>
<defs>
<clipPath id="clip0_106_166">
<rect width="54" height="57.7241" fill="white"/>
</clipPath>
</defs>
</svg>
