<svg width="42" height="42" viewBox="0 0 42 42" fill="none" xmlns="http://www.w3.org/2000/svg">
<path d="M1.48748 33.3292C1.63213 33.9575 1.93944 34.5367 2.3786 35.0088C2.81776 35.4808 3.37332 35.8291 3.98956 36.0187L4.36456 37.6667H4.33331V41.8333H37.6666V37.6667H9.9229C9.95025 37.4741 9.94532 37.2784 9.90831 37.0875L9.49998 35.2896L31.0771 30.3812L31.4854 32.1792C31.5942 32.6561 31.8879 33.0704 32.302 33.331C32.716 33.5916 33.2166 33.6771 33.6937 33.5687L35.4916 33.1583C35.728 33.1047 35.9514 33.005 36.1492 32.865C36.3469 32.725 36.5152 32.5473 36.6442 32.3422C36.7733 32.1371 36.8606 31.9086 36.9013 31.6697C36.942 31.4308 36.9352 31.1862 36.8812 30.95L36.3583 28.6521C37.2875 27.7854 37.7541 26.4729 37.4521 25.1458L36.2229 19.75C36.0737 19.0999 35.7501 18.5028 35.2868 18.023C34.8236 17.5432 34.2382 17.1989 33.5937 17.0271L29.325 9.98957C28.6955 8.9556 27.7572 8.14539 26.6426 7.67329C25.5279 7.20118 24.2931 7.09101 23.1125 7.35832L6.72081 11.0875C5.5389 11.3552 4.47132 11.9884 3.66956 12.8971C2.86779 13.8058 2.37257 14.9439 2.25415 16.15L1.4479 24.3417C0.942208 24.7759 0.564437 25.3397 0.355206 25.9725C0.145974 26.6054 0.113197 27.2833 0.260399 27.9333L1.48748 33.3292ZM7.77915 31.8958C7.42499 31.9765 7.0584 31.9867 6.70032 31.9257C6.34223 31.8648 5.99966 31.7339 5.69216 31.5405C5.38467 31.3471 5.11826 31.0951 4.90817 30.7988C4.69807 30.5025 4.5484 30.1677 4.46769 29.8135C4.38698 29.4594 4.37682 29.0928 4.43779 28.7347C4.49875 28.3766 4.62965 28.034 4.82301 27.7265C5.01637 27.419 5.2684 27.1526 5.56471 26.9426C5.86103 26.7325 6.19582 26.5828 6.54998 26.5021C7.26524 26.3391 8.01595 26.4669 8.63697 26.8574C9.25799 27.2479 9.69844 27.8691 9.86144 28.5844C10.0244 29.2996 9.89663 30.0503 9.50612 30.6714C9.11561 31.2924 8.4944 31.7328 7.77915 31.8958ZM31.1583 26.5792C30.7981 26.6782 30.4216 26.7032 30.0514 26.6528C29.6813 26.6023 29.3251 26.4774 29.0046 26.2856C28.684 26.0938 28.4056 25.8391 28.1861 25.5368C27.9666 25.2345 27.8107 24.8908 27.7276 24.5266C27.6445 24.1624 27.6361 23.7851 27.7028 23.4175C27.7695 23.05 27.9099 22.6997 28.1156 22.3879C28.3214 22.076 28.5881 21.8091 28.8998 21.6032C29.2115 21.3972 29.5616 21.2565 29.9291 21.1896C30.6303 21.0618 31.3537 21.2096 31.9486 21.6021C32.5434 21.9945 32.9639 22.6014 33.1224 23.2963C33.2809 23.9911 33.1651 24.7203 32.7992 25.3319C32.4333 25.9435 31.8455 26.3903 31.1583 26.5792ZM7.64373 15.15L24.0375 11.4187C24.366 11.3445 24.7095 11.3751 25.0196 11.5063C25.3298 11.6375 25.5911 11.8626 25.7666 12.15L29.0687 17.5937L27.8896 17.8625L6.9604 22.6271L5.77706 22.8958L6.39998 16.5583C6.43352 16.2228 6.57163 15.9064 6.79482 15.6537C7.018 15.4009 7.31496 15.2247 7.64373 15.15ZM34.3437 4.33332L31.4166 0.166656L30.375 6.41666L35.5833 14.75L41.8333 16.8333L37.6666 11.5437L41.8333 9.59999L37.6666 7.65624L41.8333 0.166656L34.3437 4.33332Z" fill="#77D19D"/>
</svg>
