<svg width="50" height="50" viewBox="0 0 50 50" fill="none" xmlns="http://www.w3.org/2000/svg">
<path d="M24.9984 46.8719C39.5828 46.8719 46.8719 37.0781 46.8719 24.9969C46.8719 12.9187 39.5828 3.125 24.9969 3.125C10.4141 3.125 3.125 12.9187 3.125 24.9984C3.125 37.0781 10.4125 46.8719 24.9984 46.8719Z" fill="url(#paint0_radial_2_7)"/>
<path d="M24.9984 46.8719C39.5828 46.8719 46.8719 37.0781 46.8719 24.9969C46.8719 12.9187 39.5828 3.125 24.9969 3.125C10.4141 3.125 3.125 12.9187 3.125 24.9984C3.125 37.0781 10.4125 46.8719 24.9984 46.8719Z" fill="url(#paint1_radial_2_7)"/>
<path d="M24.9984 46.8719C39.5828 46.8719 46.8719 37.0781 46.8719 24.9969C46.8719 12.9187 39.5828 3.125 24.9969 3.125C10.4141 3.125 3.125 12.9187 3.125 24.9984C3.125 37.0781 10.4125 46.8719 24.9984 46.8719Z" fill="url(#paint2_radial_2_7)"/>
<path d="M24.9984 46.8719C39.5828 46.8719 46.8719 37.0781 46.8719 24.9969C46.8719 12.9187 39.5828 3.125 24.9969 3.125C10.4141 3.125 3.125 12.9187 3.125 24.9984C3.125 37.0781 10.4125 46.8719 24.9984 46.8719Z" fill="url(#paint3_radial_2_7)" fill-opacity="0.6"/>
<path d="M24.9984 46.8719C39.5828 46.8719 46.8719 37.0781 46.8719 24.9969C46.8719 12.9187 39.5828 3.125 24.9969 3.125C10.4141 3.125 3.125 12.9187 3.125 24.9984C3.125 37.0781 10.4125 46.8719 24.9984 46.8719Z" fill="url(#paint4_radial_2_7)"/>
<path d="M24.9984 46.8719C39.5828 46.8719 46.8719 37.0781 46.8719 24.9969C46.8719 12.9187 39.5828 3.125 24.9969 3.125C10.4141 3.125 3.125 12.9187 3.125 24.9984C3.125 37.0781 10.4125 46.8719 24.9984 46.8719Z" fill="url(#paint5_radial_2_7)"/>
<path d="M24.9984 46.8719C39.5828 46.8719 46.8719 37.0781 46.8719 24.9969C46.8719 12.9187 39.5828 3.125 24.9969 3.125C10.4141 3.125 3.125 12.9187 3.125 24.9984C3.125 37.0781 10.4125 46.8719 24.9984 46.8719Z" fill="url(#paint6_radial_2_7)"/>
<path d="M24.9984 46.8719C39.5828 46.8719 46.8719 37.0781 46.8719 24.9969C46.8719 12.9187 39.5828 3.125 24.9969 3.125C10.4141 3.125 3.125 12.9187 3.125 24.9984C3.125 37.0781 10.4125 46.8719 24.9984 46.8719Z" fill="url(#paint7_radial_2_7)"/>
<path d="M10.9375 26.5625C10.9375 26.5625 12.5 28.125 15.625 28.125C18.75 28.125 20.3125 26.5625 20.3125 26.5625" stroke="url(#paint8_linear_2_7)" stroke-width="2" stroke-linecap="round" stroke-linejoin="round"/>
<path d="M29.6875 26.5625C29.6875 26.5625 31.25 28.125 34.375 28.125C37.5 28.125 39.0625 26.5625 39.0625 26.5625" stroke="url(#paint9_linear_2_7)" stroke-width="2" stroke-linecap="round" stroke-linejoin="round"/>
<path d="M28.125 37.5C28.125 35.7741 26.7259 34.375 25 34.375C23.2741 34.375 21.875 35.7741 21.875 37.5C21.875 39.2259 23.2741 40.625 25 40.625C26.7259 40.625 28.125 39.2259 28.125 37.5Z" fill="url(#paint10_radial_2_7)"/>
<path d="M43.75 15.625C43.75 6.99555 36.7544 0 28.125 0C19.4956 0 12.5 6.99555 12.5 15.625C12.5 24.2544 19.4956 31.25 28.125 31.25C36.7544 31.25 43.75 24.2544 43.75 15.625Z" fill="url(#paint11_radial_2_7)"/>
<path fill-rule="evenodd" clip-rule="evenodd" d="M44.9688 3.70938C45.1557 3.94254 45.2718 4.22442 45.3034 4.52157C45.3349 4.81873 45.2806 5.11871 45.1469 5.38594L41.9797 11.7234L44.9328 10.9844C45.1332 10.9306 45.3422 10.9173 45.5478 10.9452C45.7534 10.9731 45.9513 11.0416 46.1301 11.1468C46.3089 11.252 46.4649 11.3918 46.5891 11.5579C46.7134 11.7241 46.8032 11.9133 46.8535 12.1145C46.9039 12.3158 46.9136 12.5251 46.8822 12.7301C46.8508 12.9352 46.7788 13.1319 46.6706 13.3089C46.5623 13.4858 46.4199 13.6395 46.2517 13.7608C46.0834 13.8821 45.8927 13.9688 45.6906 14.0156L39.4406 15.5781C39.1509 15.6501 38.8466 15.6377 38.5638 15.5421C38.2809 15.4466 38.0313 15.272 37.8446 15.0391C37.6579 14.8062 37.5418 14.5246 37.51 14.2278C37.4783 13.9309 37.5323 13.6312 37.6656 13.3641L40.8328 7.02657L37.8797 7.76563C37.6793 7.81938 37.4703 7.8327 37.2647 7.80481C37.0592 7.77692 36.8612 7.70837 36.6824 7.60317C36.5036 7.49797 36.3476 7.35822 36.2234 7.19207C36.0992 7.02593 36.0093 6.83671 35.959 6.63546C35.9086 6.43421 35.8989 6.22496 35.9303 6.0199C35.9617 5.81485 36.0337 5.61811 36.1419 5.44115C36.2502 5.26419 36.3926 5.11055 36.5608 4.98921C36.7291 4.86786 36.9198 4.78123 37.1219 4.73438L43.3719 3.17188C43.6616 3.09952 43.966 3.11168 44.249 3.20694C44.532 3.3022 44.7818 3.47656 44.9688 3.70938V3.70938Z" fill="url(#paint12_linear_2_7)"/>
<path fill-rule="evenodd" clip-rule="evenodd" d="M44.9688 3.70938C45.1557 3.94254 45.2718 4.22442 45.3034 4.52157C45.3349 4.81873 45.2806 5.11871 45.1469 5.38594L41.9797 11.7234L44.9328 10.9844C45.1332 10.9306 45.3422 10.9173 45.5478 10.9452C45.7534 10.9731 45.9513 11.0416 46.1301 11.1468C46.3089 11.252 46.4649 11.3918 46.5891 11.5579C46.7134 11.7241 46.8032 11.9133 46.8535 12.1145C46.9039 12.3158 46.9136 12.5251 46.8822 12.7301C46.8508 12.9352 46.7788 13.1319 46.6706 13.3089C46.5623 13.4858 46.4199 13.6395 46.2517 13.7608C46.0834 13.8821 45.8927 13.9688 45.6906 14.0156L39.4406 15.5781C39.1509 15.6501 38.8466 15.6377 38.5638 15.5421C38.2809 15.4466 38.0313 15.272 37.8446 15.0391C37.6579 14.8062 37.5418 14.5246 37.51 14.2278C37.4783 13.9309 37.5323 13.6312 37.6656 13.3641L40.8328 7.02657L37.8797 7.76563C37.6793 7.81938 37.4703 7.8327 37.2647 7.80481C37.0592 7.77692 36.8612 7.70837 36.6824 7.60317C36.5036 7.49797 36.3476 7.35822 36.2234 7.19207C36.0992 7.02593 36.0093 6.83671 35.959 6.63546C35.9086 6.43421 35.8989 6.22496 35.9303 6.0199C35.9617 5.81485 36.0337 5.61811 36.1419 5.44115C36.2502 5.26419 36.3926 5.11055 36.5608 4.98921C36.7291 4.86786 36.9198 4.78123 37.1219 4.73438L43.3719 3.17188C43.6616 3.09952 43.966 3.11168 44.249 3.20694C44.532 3.3022 44.7818 3.47656 44.9688 3.70938V3.70938Z" fill="url(#paint13_radial_2_7)"/>
<path fill-rule="evenodd" clip-rule="evenodd" d="M40.7453 3.82813L43.3703 3.17188C43.6602 3.09947 43.9647 3.11167 44.2478 3.20703C44.5309 3.30239 44.7807 3.47692 44.9677 3.70992C45.1547 3.94293 45.2709 4.22465 45.3027 4.5217C45.3344 4.81875 45.2804 5.11868 45.1469 5.38594L43.9375 7.80782L43.75 7.8125C43.2662 7.81253 42.789 7.70024 42.356 7.48446C41.923 7.26869 41.5461 6.95533 41.2548 6.56907C40.9635 6.18281 40.7659 5.7342 40.6774 5.25856C40.589 4.78293 40.6123 4.29326 40.7453 3.82813V3.82813Z" fill="url(#paint14_radial_2_7)"/>
<path fill-rule="evenodd" clip-rule="evenodd" d="M29.6875 10.1562C29.6875 9.94905 29.7698 9.75034 29.9163 9.60382C30.0628 9.45731 30.2615 9.375 30.4688 9.375H35.1563C35.3013 9.375 35.4436 9.4154 35.567 9.49168C35.6904 9.56796 35.7901 9.67709 35.855 9.80686C35.9199 9.93663 35.9474 10.0819 35.9343 10.2264C35.9213 10.3709 35.8683 10.5089 35.7812 10.625L32.0313 15.625H35.1563C35.3635 15.625 35.5622 15.7073 35.7087 15.8538C35.8552 16.0003 35.9375 16.199 35.9375 16.4062C35.9375 16.6135 35.8552 16.8122 35.7087 16.9587C35.5622 17.1052 35.3635 17.1875 35.1563 17.1875H30.4688C30.3237 17.1875 30.1814 17.1471 30.058 17.0708C29.9346 16.9945 29.8349 16.8854 29.77 16.7556C29.7051 16.6259 29.6776 16.4806 29.6907 16.3361C29.7037 16.1916 29.7567 16.0536 29.8438 15.9375L33.5938 10.9375H30.4688C30.2615 10.9375 30.0628 10.8552 29.9163 10.7087C29.7698 10.5622 29.6875 10.3635 29.6875 10.1562ZM21.9156 13.0344C21.9812 12.838 22.1221 12.6758 22.3072 12.5832C22.4924 12.4906 22.7067 12.4753 22.9031 12.5406L27.5906 14.1031C27.7335 14.1509 27.8595 14.239 27.9535 14.3568C28.0475 14.4746 28.1054 14.617 28.1203 14.767C28.1351 14.9169 28.1063 15.068 28.0373 15.2019C27.9683 15.3358 27.862 15.447 27.7312 15.5219L23.7813 17.7813L26.8125 18.7922C26.9125 18.8225 27.0054 18.8725 27.0856 18.9394C27.1659 19.0062 27.232 19.0884 27.28 19.1812C27.3279 19.274 27.3568 19.3755 27.3648 19.4797C27.3729 19.5838 27.3599 19.6885 27.3268 19.7876C27.2937 19.8867 27.241 19.9781 27.1719 20.0565C27.1029 20.1348 27.0188 20.1985 26.9246 20.2438C26.8305 20.2891 26.7283 20.3151 26.6239 20.3202C26.5196 20.3253 26.4153 20.3094 26.3172 20.2734L21.6297 18.7109C21.4868 18.6631 21.3608 18.575 21.2668 18.4573C21.1728 18.3395 21.1149 18.197 21.1001 18.0471C21.0852 17.8971 21.114 17.7461 21.183 17.6122C21.252 17.4782 21.3583 17.3671 21.4891 17.2922L25.4375 15.0312L22.4063 14.0203C22.2102 13.9544 22.0483 13.8134 21.956 13.6283C21.8638 13.4432 21.8487 13.229 21.9141 13.0328L21.9156 13.0344Z" fill="#00A6ED"/>
<defs>
<radialGradient id="paint0_radial_2_7" cx="0" cy="0" r="1" gradientUnits="userSpaceOnUse" gradientTransform="translate(39.844 14.0618) rotate(132.839) scale(58.5989)">
<stop stop-color="#FFF478"/>
<stop offset="0.475" stop-color="#FFB02E"/>
<stop offset="1" stop-color="#F70A8D"/>
</radialGradient>
<radialGradient id="paint1_radial_2_7" cx="0" cy="0" r="1" gradientUnits="userSpaceOnUse" gradientTransform="translate(39.8419 14.0635) rotate(131.878) scale(60.8573)">
<stop stop-color="#FFF478"/>
<stop offset="0.475" stop-color="#FFB02E"/>
<stop offset="1" stop-color="#F70A8D"/>
</radialGradient>
<radialGradient id="paint2_radial_2_7" cx="0" cy="0" r="1" gradientUnits="userSpaceOnUse" gradientTransform="translate(24.9989 19.5308) rotate(101.31) scale(27.8853 35.7158)">
<stop offset="0.788" stop-color="#F59639" stop-opacity="0"/>
<stop offset="0.973" stop-color="#FF7DCE"/>
</radialGradient>
<radialGradient id="paint3_radial_2_7" cx="0" cy="0" r="1" gradientUnits="userSpaceOnUse" gradientTransform="translate(28.125 21.875) rotate(135) scale(64.0815)">
<stop offset="0.315" stop-opacity="0"/>
<stop offset="1"/>
</radialGradient>
<radialGradient id="paint4_radial_2_7" cx="0" cy="0" r="1" gradientUnits="userSpaceOnUse" gradientTransform="translate(24.9999 26.5637) rotate(77.692) scale(43.9795)">
<stop offset="0.508" stop-color="#7D6133" stop-opacity="0"/>
<stop offset="1" stop-color="#715B32"/>
</radialGradient>
<radialGradient id="paint5_radial_2_7" cx="0" cy="0" r="1" gradientUnits="userSpaceOnUse" gradientTransform="translate(25.7813 25.7812) rotate(55.713) scale(20.8023 15.0786)">
<stop stop-color="#FFB849"/>
<stop offset="1" stop-color="#FFB847" stop-opacity="0"/>
</radialGradient>
<radialGradient id="paint6_radial_2_7" cx="0" cy="0" r="1" gradientUnits="userSpaceOnUse" gradientTransform="translate(32.0312 28.125) rotate(9.86582) scale(18.2384)">
<stop stop-color="#FFA64B"/>
<stop offset="0.9" stop-color="#FFAE46" stop-opacity="0"/>
</radialGradient>
<radialGradient id="paint7_radial_2_7" cx="0" cy="0" r="1" gradientUnits="userSpaceOnUse" gradientTransform="translate(27.3438 23.4379) rotate(43.971) scale(92.2701)">
<stop offset="0.185" stop-opacity="0"/>
<stop offset="1" stop-opacity="0.4"/>
</radialGradient>
<linearGradient id="paint8_linear_2_7" x1="17.5" y1="26.1719" x2="17.1328" y2="28.3766" gradientUnits="userSpaceOnUse">
<stop stop-color="#52383E"/>
<stop offset="1" stop-color="#432A35"/>
</linearGradient>
<linearGradient id="paint9_linear_2_7" x1="36.25" y1="26.1719" x2="35.8828" y2="28.3766" gradientUnits="userSpaceOnUse">
<stop stop-color="#52383E"/>
<stop offset="1" stop-color="#432A35"/>
</linearGradient>
<radialGradient id="paint10_radial_2_7" cx="0" cy="0" r="1" gradientUnits="userSpaceOnUse" gradientTransform="translate(25 42.0141) rotate(-90) scale(7.63889)">
<stop stop-color="#F70A8D"/>
<stop offset="1" stop-color="#89029C"/>
</radialGradient>
<radialGradient id="paint11_radial_2_7" cx="0" cy="0" r="1" gradientUnits="userSpaceOnUse" gradientTransform="translate(25.7813 17.9687) rotate(-21.8014) scale(12.6215 9.00867)">
<stop stop-color="#EFA031"/>
<stop offset="1" stop-color="#F0A83E" stop-opacity="0"/>
</radialGradient>
<linearGradient id="paint12_linear_2_7" x1="37.5" y1="13.2813" x2="43.75" y2="10.1563" gradientUnits="userSpaceOnUse">
<stop stop-color="#2C80E2"/>
<stop offset="1" stop-color="#00A6ED"/>
</linearGradient>
<radialGradient id="paint13_radial_2_7" cx="0" cy="0" r="1" gradientUnits="userSpaceOnUse" gradientTransform="translate(45.3125 11.7188) rotate(164.055) scale(5.68759 1.31403)">
<stop stop-color="#63BEFE"/>
<stop offset="1" stop-color="#63BEFE" stop-opacity="0"/>
</radialGradient>
<radialGradient id="paint14_radial_2_7" cx="0" cy="0" r="1" gradientUnits="userSpaceOnUse" gradientTransform="translate(43.75 3.90625) rotate(45) scale(2.20971)">
<stop stop-color="#63BEFE"/>
<stop offset="1" stop-color="#4FB5FC" stop-opacity="0"/>
</radialGradient>
</defs>
</svg>
