<svg width="44" height="44" viewBox="0 0 44 44" fill="none" xmlns="http://www.w3.org/2000/svg">
<path d="M22 9.47414C22.5636 9.47414 23.1041 9.69802 23.5026 10.0965C23.9011 10.495 24.125 11.0356 24.125 11.5991V24.3491C24.125 24.9127 23.9011 25.4532 23.5026 25.8517C23.1041 26.2503 22.5636 26.4741 22 26.4741C21.4364 26.4741 20.8959 26.2503 20.4974 25.8517C20.0989 25.4532 19.875 24.9127 19.875 24.3491V11.5991C19.875 11.0356 20.0989 10.495 20.4974 10.0965C20.8959 9.69802 21.4364 9.47414 22 9.47414ZM22 30.7241C21.4364 30.7241 20.8959 30.948 20.4974 31.3465C20.0989 31.745 19.875 32.2856 19.875 32.8491C19.875 33.4127 20.0989 33.9532 20.4974 34.3517C20.8959 34.7503 21.4364 34.9741 22 34.9741C22.5636 34.9741 23.1041 34.7503 23.5026 34.3517C23.9011 33.9532 24.125 33.4127 24.125 32.8491C24.125 32.2856 23.9011 31.745 23.5026 31.3465C23.1041 30.948 22.5636 30.7241 22 30.7241Z" fill="#FB8A05"/>
<path fill-rule="evenodd" clip-rule="evenodd" d="M22 0.974136C10.2636 0.974136 0.75 10.4878 0.75 22.2241C0.75 33.9605 10.2636 43.4741 22 43.4741C33.7364 43.4741 43.25 33.9605 43.25 22.2241C43.25 10.4878 33.7364 0.974136 22 0.974136ZM5 22.2241C5 26.7328 6.79107 31.0568 9.97919 34.245C13.1673 37.4331 17.4913 39.2241 22 39.2241C26.5087 39.2241 30.8327 37.4331 34.0208 34.245C37.2089 31.0568 39 26.7328 39 22.2241C39 17.7155 37.2089 13.3914 34.0208 10.2033C30.8327 7.0152 26.5087 5.22414 22 5.22414C17.4913 5.22414 13.1673 7.0152 9.97919 10.2033C6.79107 13.3914 5 17.7155 5 22.2241Z" fill="#FB8A05"/>
</svg>
