<svg width="50" height="50" viewBox="0 0 50 50" fill="none" xmlns="http://www.w3.org/2000/svg">
<path d="M24.8841 41.5507C34.0924 41.5507 41.5507 34.0924 41.5507 24.8841C41.5507 15.6757 34.0924 8.21738 24.8841 8.21738C15.6757 8.21738 8.21736 15.6757 8.21736 24.8841C8.21736 34.0924 15.6757 41.5507 24.8841 41.5507Z" fill="#2F88FF" stroke="#FFB02E" stroke-width="4" stroke-miterlimit="2" stroke-linejoin="round"/>
<path d="M24.8841 33.2174C29.4882 33.2174 33.2174 29.4882 33.2174 24.8841C33.2174 20.2799 29.4882 16.5507 24.8841 16.5507C20.2799 16.5507 16.5507 20.2799 16.5507 24.8841C16.5507 29.4882 20.2799 33.2174 24.8841 33.2174Z" fill="#43CCF8" stroke="white" stroke-width="4" stroke-miterlimit="2" stroke-linejoin="round"/>
<path d="M24.8841 26.9674C26.0299 26.9674 26.9674 26.0299 26.9674 24.8841C26.9674 23.7382 26.0299 22.8007 24.8841 22.8007C23.7382 22.8007 22.8007 23.7382 22.8007 24.8841C22.8007 26.0299 23.7382 26.9674 24.8841 26.9674Z" fill="#FFB02E"/>
<path d="M24.8841 8.21737V4.0507" stroke="#FFB02E" stroke-width="4" stroke-miterlimit="2" stroke-linecap="round" stroke-linejoin="round"/>
<path d="M39.4674 45.7174L35.3007 38.4257" stroke="#FFB02E" stroke-width="4" stroke-miterlimit="2" stroke-linecap="round" stroke-linejoin="round"/>
<path d="M14.4674 38.4257L10.3007 45.7174" stroke="#FFB02E" stroke-width="4" stroke-miterlimit="2" stroke-linecap="round" stroke-linejoin="round"/>
</svg>
